<svg version="1" xmlns="http://www.w3.org/2000/svg" width="933.333" height="933.333" viewBox="0 0 700.000000 700.000000"><path d="M420 1.9c0 1.6-.9 2.1-4.7 2.6-2.7.3-5.4.7-6.1.8-.7.1-2.4 3.6-3.8 7.7-6.5 19.2-16.1 34.7-30.4 49.1-31.7 31.8-76.8 43.9-120.2 32.3-26.8-7.2-53-25.2-68.8-47.5-6.3-8.8-15.1-26.6-17.6-35.5L166.5 5h-61.6C67.8 5 41.2 5.4 38 6 22.2 9 9 22.2 6 37.9c-.7 3.6-1 109.1-1 313 0 336-.4 313.5 5.6 323.6 3.2 5.6 9.3 11.7 14.9 14.9 9.7 5.7 7 5.6 118.3 5.6h102.4l5.9-3.6c15.8-9.6 41.3-19.8 60.9-24.3 29.4-6.9 66.4-6.8 96.4.4 19.4 4.6 45.6 15.2 60.1 24.3l5 3.2h-22c-27 0-32.5.6-32.5 3.1 0 1.8 3.6 1.9 117.8 1.9 71.6 0 120-.4 123.7-1 18.6-3 34.5-18.9 37.5-37.6 1.3-8 1.3-614.8 0-622.8C696 19.9 680.1 4 661.5 1c-3.7-.6-52.1-1-123.7-1C421.9 0 420 0 420 1.9zM197.3 303.3c5.4 3.5 6.7 7.1 6.7 18.7 0 11.9-1.7 16.3-7 18.3-3.7 1.4-3.7 1.8.2 3.7 6.2 2.9 7.3 5.7 7.3 19 0 13.2-.9 15.6-7.6 19.5-3.2 1.9-5.5 2-36.6 2.3l-33.3.3v-84.2l33.8.3c30.6.3 34.1.5 36.5 2.1zM101 322.5v6.5H53v14h28v13H53v16h49v13H38v-33.8c0-18.6.3-34.2.7-34.5.3-.4 14.5-.7 31.5-.7H101v6.5zM246 344v28h40v-56.1l7.3.3 7.2.3v30.2c0 29.1-.1 30.3-2.1 33-3.8 5.1-5 5.3-32.2 5.3-27.8 0-30.6-.5-33.3-5.8-.9-2-1.4-10.3-1.7-31.5-.2-15.8-.1-29.4.2-30.2.4-1.1 2.3-1.5 7.6-1.5h7v28zm133.7-25.6c11.1 3.5 18.1 12 20.3 24.6 2.3 13-1.6 26.9-9.3 33.6-8.2 7-12.2 7.8-39.9 8.2l-24.8.4v-34c0-18.6.3-34.2.8-34.6.4-.4 11.3-.6 24.2-.3 18.3.3 24.7.8 28.7 2.1zm107.4-.6c3.5 1.9 5 4.6 5.6 10.7l.6 5.3-5.2 1.1c-8.4 1.8-9.1 1.6-9.1-2.4V329h-44v43h44v-14h-23v-13h37l-.1 14.7c-.1 26 1 25.3-36.2 25.3-29.5 0-32.2-.4-34.7-5.8-1.8-3.7-2.6-41.3-1.2-50.6 1.3-8.2 3.3-10.6 9.4-11.7 7.7-1.3 54-.5 56.9.9zm92.9 4.7v6.5h-48v13.9l13.8.3 13.7.3v12l-13.7.3-13.8.3V372l24.3.2 24.2.3.3 6.2.3 6.3H517v-69h63v6.5zm84 0v6.5h-28v56h-15v-56h-28v-13h71v6.5z"/><path d="M144 325v10h19.5c20.4 0 23.9-.6 24.9-4.4.7-2.7.7-8.5 0-11.2-1-3.8-4.5-4.4-24.9-4.4H144v10zM144 359.5V370h19.8c24.9 0 24.6.1 25-10 .4-11.2.8-11-24.4-11H144v10.5zM341 350.4V372h12.5c16.4 0 22-1.2 26.6-5.9 2.8-2.8 3.9-5 4.9-9.5 2.3-11.4-.6-20.7-8-25-3.1-1.8-5.5-2.1-19.7-2.4l-16.3-.4v21.6z"/></svg>