<svg version="1" xmlns="http://www.w3.org/2000/svg" width="933.333" height="933.333" viewBox="0 0 700.000000 700.000000"><path d="M142.7 1.1C88.9 5.9 40.7 39.2 16.2 88.5 9.8 101.4 4.4 119.3 1.8 136c-1.9 12.5-1.9 415.5 0 428 5.5 35.6 20.3 65.2 44.7 89.5 21.4 21.5 50.1 37.1 78.8 42.9 16.8 3.5 31.1 3.7 203.7 3.4 191.1-.4 172.3.3 197.7-7.9 25-8.1 55.7-26.7 74.2-45 16.4-16.2 29.6-42 36.7-71.6 6.2-26.2 5.8-11.3 6.2-223.3.2-143.6 0-196.2-.8-204-2.3-20.7-7.4-41.3-14.6-59.2-19.1-47.8-52.2-73.7-110-86L507.5.5l-178-.1c-97.9-.1-182 .2-186.8.7zm217.5 217.1l.3 12.3 47 .6c50.5.6 54.4 1 65.8 6.2 7.3 3.4 10.9 6.7 14.6 13.6 6 11.3 6.3 14.5 6.8 68.8l.5 49.3H257v56l90.3-.2 90.2-.3.3-12.8c.2-11.6.4-12.8 2-12.3.9.3 12.7 2.3 26.2 4.6 13.5 2.2 25.5 4.2 26.7 4.5 2.1.5 2.1.9 1.6 9.8-1.4 24.6-7.4 37.3-20.7 43.6-11.8 5.7-18.5 6.3-68.3 6.8l-45.3.5V491h-6v-22h-9v23.1l-3.2-.3-3.3-.3-.3-11.1-.3-11.2-47.7-.5c-42.8-.4-48.6-.7-56.8-2.5-18.9-4.1-27.3-11.8-32.2-29.5-1.5-5.6-1.7-13.6-1.7-87.2 0-75.4.1-81.4 1.8-87.4 3.6-12.7 8.7-19.6 17.6-24 12.8-6.4 20.3-7.1 73.4-7.1H338v-24h7v24h9v-25h5.9l.3 12.2zm-309.5-7c2.9 1.4 4.7 6.7 3.4 10.1-1.3 3.3-4.8 5.7-8.4 5.7-3.4 0-8.7-4.8-8.7-7.9 0-3.6 2.4-7.4 5.4-8.6 3-1.3 4.3-1.2 8.3.7zm1.8 132.3c5.4 5.3 1.6 14.5-6 14.5-4.9 0-8.5-3.6-8.5-8.5 0-7.6 9.2-11.4 14.5-6zm-3.1 131.9c6.1 2.6 7 11.1 1.4 15-7 4.9-16-2.7-12.7-10.7.7-1.7 2.6-3.5 4.3-4.3 3.8-1.6 3.1-1.6 7 0z"/><path d="M257 302v25h181v-50H257v25zM590.5 13.7c27.7 15 45.7 34.2 59.4 63.3 9 19.3 16.4 46.9 19.1 71.5.8 7 1 68 .8 203-.4 173.2-.6 194-2 203-4.1 24.9-10.3 45.4-18.7 62.3-10.2 20.6-22 34.8-40.5 48.6-12.7 9.5-16.1 11.7-30.6 19.8-5.7 3.2-10.1 5.8-9.7 5.8 1.8 0 18.7-7.4 25.7-11.3 53.7-29.4 75.4-60.8 86.7-125.3 1.6-9.1 1.7-25.6 2.1-201.9.4-203.6.4-202.2-4.4-226-11.1-55.2-37.5-92-79.2-110.5-13.8-6.1-17.6-7.1-8.7-2.3z"/><path d="M567.1 11.4c.2.2 4.3 2.6 9 5.3 40.1 23 63.3 62.8 72.6 124.3 1.4 9.4 1.6 31.4 1.4 203.5-.1 122.1-.6 196.7-1.2 203-4.2 41.5-20.2 80.4-42.2 102.8-12.4 12.6-30.8 25.7-50.2 35.9-6 3.2-10.7 5.8-10.3 5.8.4 0 4.2-1.4 8.5-3.1 25.1-9.9 56.4-30.8 70.1-46.7 19.3-22.4 32.1-54.4 36.7-91.7 1.9-15.6 2.5-393.7.6-406.5-9.2-63.2-33.6-103.5-75.6-124.8-9.9-5-21.3-9.6-19.4-7.8z"/><path d="M642.4 37.5c23.4 23.8 38.8 59.2 45.1 103.7 2.2 15.7 2.2 389.2 0 408.2-5 42.6-20.8 80.1-43.1 102-16.4 16.2-44.2 34.2-65.8 42.7-8.5 3.4-8 3.6 2.4.9 18.1-4.6 38.1-13.9 53.3-24.7 10.8-7.7 28.7-25.6 36.4-36.6 11.7-16.7 21.9-39.9 25.7-58.8 3.4-16.5 3.6-30.1 3.6-224.9s-.2-208.4-3.6-224.9c-3.8-18.9-14-42.2-25.7-58.8-6.3-8.9-24.3-27.9-30.7-32.3-2.6-1.8-2-.9 2.4 3.5z"/></svg>