<svg version="1" xmlns="http://www.w3.org/2000/svg" width="933.333" height="933.333" viewBox="0 0 700.000000 700.000000"><path d="M36 1.1C18.6 4 3.9 19.1 1 37-.4 46-.4 654 1 663c2.9 18.4 17.6 33.1 36 36 9 1.4 617 1.4 626 0 18.4-2.9 33.1-17.6 36-36 1.4-9 1.4-617 0-626-2.9-18.4-17.6-33.1-36-36C654.7-.3 44-.2 36 1.1zm165 314.4c4.6 2.4 6 6.2 6 16 0 8.2-.1 8.8-2.9 11.6-1.6 1.6-3.7 2.9-4.5 2.9-2.6 0-1.8 1.4 1.4 2.9 4.7 2 6.3 5.3 6.8 13.9.6 10.1-1.1 14.3-7 17.4-4.2 2.2-5.3 2.3-36 2.6l-31.8.4V314h32.5c27.2 0 33.1.3 35.5 1.5zm-93.2 15.7l.3 4.8H61v12h27v10H61v14h47v11H47v-57l30.3.2 30.2.3.3 4.7zm140 18l.2 22.8h38v-46h15.2l-.4 24.2c-.3 17.6-.8 25-1.7 27-2.4 4.8-5.4 5.3-32.1 5.3-26.7 0-30.2-.6-32.3-5.4-.6-1.6-1.2-12.3-1.5-26.9l-.4-24.3 7.4.3 7.3.3.3 22.7zm134.3-19.6c10.3 4.9 14.9 12.3 14.9 24 0 8.6-1.5 13.5-5.7 18.3-7.4 8.7-19.5 11.4-48.3 10.9l-17.5-.3-.3-28.3-.2-28.4 25.2.4 25.3.3 6.6 3.1zm97.2-2.5c4.4 1.2 6.4 3.9 6.9 9.3.3 3.8.2 4-3.2 4.7-10.7 2.1-10 2.1-10-1.1v-3h-43l.2 17.2.3 17.3 21.3.3 21.2.2v-12h-22v-10h36.3l-.5 12.9c-.5 14.3-1.6 17.5-6.6 18.8-1.5.5-14.4.8-28.7.8-14.3 0-27.2-.3-28.7-.8-5.7-1.6-6.3-4-6.3-27.2 0-23.6.5-25.6 6.8-27.4 4.5-1.3 51.3-1.3 56 0zM571 331v5h-47v12h27v10h-27v14h47v11h-61v-57h61v5zm80.8.2l-.3 5.3-13.2.3-13.3.3-.2 22.7-.3 22.7h-14l-.3-22.7-.2-22.7-13.3-.3-13.2-.3-.3-5.3-.3-5.2h69.2l-.3 5.2z"/><path d="M149 332.9v8.1h19.6c11.5 0 20.3-.4 21.5-1 1.5-.9 1.9-2.1 1.9-6.3 0-8.5.8-8.2-22.5-8.5l-20.5-.3v8zM149 361.5v8.5h19.8c23.6 0 23.6 0 23.6-8.5.1-8.5.1-8.5-23.6-8.5H149v8.5zM340 354.5V372h9.8c24.5-.1 31.6-3.6 32.9-16.1.8-7.8-2-14-7.6-16.8-3.5-1.9-5.8-2.1-19.6-2.1H340v17.5z"/></svg>