<?xml version="1.0" standalone="no"?>
<!DOCTYPE svg PUBLIC "-//W3C//DTD SVG 20010904//EN"
 "http://www.w3.org/TR/2001/REC-SVG-20010904/DTD/svg10.dtd">
<svg version="1.0" xmlns="http://www.w3.org/2000/svg"
 width="16.000000pt" height="16.000000pt" viewBox="0 0 16.000000 16.000000"
 preserveAspectRatio="xMidYMid meet">
<metadata>
Created by potrace 1.11, written by Peter Selinger 2001-2013
</metadata>
<g transform="translate(0.000000,16.000000) scale(0.001301,-0.001301)"
fill="#000000" stroke="none">
<path d="M2259 12286 c-2 -2 -33 -7 -69 -10 -75 -7 -89 -9 -230 -37 -532 -106
-1030 -404 -1386 -829 -200 -239 -344 -495 -444 -789 -45 -132 -80 -274 -107
-431 -17 -100 -18 -299 -20 -4005 -2 -3758 -1 -3905 17 -4030 46 -319 129
-585 257 -824 93 -173 222 -363 322 -475 87 -97 245 -248 321 -306 25 -19 47
-38 50 -41 13 -15 175 -123 255 -169 169 -99 346 -174 545 -234 87 -26 127
-35 265 -61 44 -8 98 -18 120 -22 59 -11 7878 -14 7950 -3 33 5 80 12 105 15
148 20 366 80 540 148 194 76 439 214 575 324 6 5 30 24 55 43 58 45 105 87
199 180 260 256 473 598 590 948 37 110 89 316 97 387 4 28 8 53 10 56 16 27
19 667 19 4024 0 3483 -3 3933 -20 4030 -3 17 -10 59 -16 95 -90 529 -373
1030 -795 1406 -311 277 -720 482 -1124 563 -30 6 -66 14 -80 16 -14 3 -50 8
-80 11 -30 4 -75 10 -100 15 -44 8 -7813 13 -7821 5z"/>
</g>
</svg>
